<svg width="34" height="51" viewBox="0 0 34 51" fill="none" xmlns="http://www.w3.org/2000/svg">
<path d="M1.15039 48.2703V49.3091L1.9623 48.661L16.681 36.9132L31.9418 48.6664L32.7469 49.2864V48.2703V3.86608C32.7469 3.10433 32.6171 2.49749 32.323 2.03854C32.0183 1.56299 31.5777 1.30818 31.0915 1.17888C30.6228 1.05426 30.0913 1.04054 29.5635 1.05077C29.3366 1.05517 29.1164 1.0636 28.8947 1.07209C28.5673 1.08462 28.2365 1.09727 27.876 1.09727H6.02133C5.66078 1.09727 5.33005 1.08462 5.00264 1.07209C4.78094 1.0636 4.56075 1.05517 4.33387 1.05077C3.80606 1.04054 3.27451 1.05426 2.80586 1.17888C2.31965 1.30818 1.87901 1.56299 1.5743 2.03854C1.28021 2.49749 1.15039 3.10433 1.15039 3.86608V48.2703Z" fill="white" stroke="#D8E5EF" stroke-width="0.999999"/>
<path d="M25.1649 10.1931C24.3112 8.31243 21.3232 8.51274 21.3232 10.9164C21.3232 13.3201 25.1649 15.3233 25.1649 15.3233C25.1649 15.3233 29.0066 13.3201 29.0066 10.9164C29.0066 8.51274 26.0186 8.31243 25.1649 10.1931Z" fill="#4E697C" stroke="#4E697C" stroke-width="0.999999" stroke-linecap="round" stroke-linejoin="round"/>
<path d="M16.5935 36.4849L1.7168 48.1309V21.6077C4.45533 18.8808 6.84542 18.0571 9.09133 18.1853C11.3812 18.316 13.5623 19.435 15.878 20.6759C15.9825 20.7319 16.0872 20.7882 16.1922 20.8445C18.3968 22.028 20.7212 23.2759 23.3106 23.7458C25.9398 24.2229 28.8292 23.8975 32.1499 21.9469V48.1384L16.8994 36.4831L16.7457 36.3657L16.5935 36.4849Z" fill="url(#paint0_linear_3875_4853)" stroke="#D8E5EF" stroke-width="0.499999"/>
<defs>
<linearGradient id="paint0_linear_3875_4853" x1="-2.94042" y1="17.914" x2="32.9055" y2="48.0109" gradientUnits="userSpaceOnUse">
<stop stop-color="#4E697C"/>
<stop offset="1" stop-color="#8EBADA"/>
</linearGradient>
</defs>
</svg>
